<svg xmlns="http://www.w3.org/2000/svg" width="237.375" height="153.47" viewBox="0 0 237.375 153.47"><path data-name="top/service-pw-txt.svg" d="M45.817.58h-5.875l-7.143 19.73L25.467.58h-4.652l-7.473 19.73L6.387.58H-.005L12.969 34.6l10.01-24.67 9.87 24.67zM67.251.01c-9.588 0-16.637 7.29-16.637 17.01s7.049 17.02 16.637 17.02 16.636-7.29 16.636-17.02S76.838.01 67.251.01zm0 28.67c-6.627 0-10.9-5.31-10.9-11.66s4.277-11.65 10.9-11.65 10.9 5.31 10.9 11.65-4.274 11.66-10.9 11.66zm25.474 4.79h5.644v-12.4h2.585l7.8 12.4h6.579l-8.224-12.78c4.7-1.17 7.331-4.93 7.331-9.87 0-6.01-4.37-10.24-10.9-10.24H92.725v32.89zm10.1-17.76h-4.456V5.93h4.465c3.619 0 5.875 1.65 5.875 4.89s-2.261 4.89-5.88 4.89zm26.7-15.13h-5.64v32.89h5.64V18.62l12.924 14.85h7.473l-14.475-16.73L148.324.58h-7.05l-11.749 14.75V.58zM3.943 93.47h5.639V60.58H3.943v32.89zm17.013-32.89v32.89h5.64v-22.6l16.449 22.6h5.075V60.58h-5.639v22.65L26.032 60.58h-5.076zm-7.191 75.69H8.924v-10.34h4.845c3.854 0 5.875 2.07 5.875 5.17s-2.025 5.17-5.875 5.17zm-10.48 17.2h5.639v-11.84h5.545c6.533 0 10.9-4.51 10.9-10.53s-4.37-10.52-10.9-10.52H3.285v32.89zm24.91 0h5.687l3.008-7.8h13.911l3.007 7.8h5.687l-12.783-32.89h-5.734zm15.65-25.8l4.935 12.83h-9.87zm23.172 25.8h5.639v-12.4h2.585l7.8 12.4h6.579l-8.224-12.78c4.7-1.17 7.331-4.93 7.331-9.87 0-6.01-4.37-10.24-10.9-10.24h-10.81v32.89zm10.1-17.76h-4.465v-9.78h4.465c3.619 0 5.875 1.65 5.875 4.89s-2.252 4.89-5.871 4.89zm17.861 17.76h5.691l3.008-7.8h13.911l3.008 7.8h5.687l-12.784-32.89h-5.73zm15.649-25.8l4.935 12.83h-9.869zm23.172 25.8h19.645v-5.35h-14v-27.54h-5.64v32.89zm27.26 0h19.645v-5.35h-14v-27.54h-5.64v32.89zm32.9-27.54h14.287v-5.35h-19.923v32.89h20.209v-5.35h-14.569v-8.84h13.159v-5.36h-13.159v-7.99zm23.782 27.54h19.648v-5.35h-14v-27.54h-5.639v32.89z" fill-rule="evenodd"/></svg>