<svg xmlns="http://www.w3.org/2000/svg" width="159.812" height="36.41" viewBox="0 0 159.812 36.41"><path data-name="top/service-media-txt.svg" d="M45.32 8.08a5.665 5.665 0 10-5.617 5.61 5.65 5.65 0 005.617-5.61zm-1.968 17.18c0-.81-7.633-9.6-13.441-13.49a.706.706 0 00-.384-.19 16.475 16.475 0 00-3.6 2.06.273.273 0 00-.144.24.513.513 0 00.24.44c1.968 1.48 9.217 7.77 12.433 13.97a.443.443 0 00.288.24c.959 0 4.606-2.84 4.606-3.27zm-20.69-10.27c0-.77-4.656-2.83-5.425-2.83a.522.522 0 00-.432.43C14.837 16.52 8.789 24.06.196 27.18a.206.206 0 00-.192.19.522.522 0 00.336.39 42.235 42.235 0 014.272 1.92.853.853 0 00.48.14 1.887 1.887 0 00.865-.24c6.288-2.78 11.376-9.26 13.729-11.95 1.008-1.2 2.976-1.87 2.976-2.64zM42.44 8.08a2.785 2.785 0 01-5.569 0 2.785 2.785 0 115.569 0zm29.375 5.76a.317.317 0 01.336.38c0 1.2-6.145 14.64-22.178 18.82-.336.09-.528.14-.528.29a1.073 1.073 0 00.528.48c.912.52 2.928 1.1 3.984 2.01a1.06 1.06 0 00.672.24 1.462 1.462 0 00.528-.09c9.745-2.93 19.2-12.58 23.138-22.04.48-1.2 1.728-1.73 1.728-2.4s-3.408-2.83-4.08-2.83a1.251 1.251 0 00-.528.24c-1.776 1.15-14.4 1.3-21.17 1.3h-3.12a.5.5 0 00-.528.52 21.73 21.73 0 002.016 4.13.809.809 0 00.768.43 4.117 4.117 0 00.672-.09c2.5-.39 12.673-1.25 17.714-1.39h.048zm2.448-8.79a.509.509 0 00.432-.33c.1-.82.192-2.84.192-3.89V.44a.432.432 0 00-.432-.43 95 95 0 01-12.529.87c-1.488 0-3.264-.05-6.289-.24h-.187a.247.247 0 00-.288.28c0 .44.96 3.89 1.1 4.32a.614.614 0 00.528.34h.1a81.848 81.848 0 0111.521-.77c1.392 0 3.025.05 5.809.24h.048zm20.879 30.58c-.336-4.08-.432-7.82-.432-10.94 0-1.4 0-2.64.048-3.75 5.136-7.34 9.649-10.42 11.569-10.42.96 0 1.248.72 1.248 1.73a10.818 10.818 0 01-.1 1.2 42.818 42.818 0 00-.768 7.68c0 8.21 3.216 12.29 7.825 12.29 5.088 0 11.377-5.61 11.377-6.33a2.8 2.8 0 00-.144-.53 4.058 4.058 0 01-.24-1.63c0-.77.1-1.54.1-2.07a.245.245 0 00-.24-.29.6.6 0 00-.336.2c-3.553 3.88-6.865 6-9.361 6-2.784 0-4.561-2.55-4.561-8.21a44.779 44.779 0 01.72-7.3 11.51 11.51 0 00.144-1.78c0-3.02-1.536-5.13-4.416-5.13-4.752 0-9.841 5.28-10.945 6.48l-.768-.67-.432-.2a36.757 36.757 0 011.536-6.43c.384-1.15 1.68-2.11 1.68-2.69a.575.575 0 00-.576-.48c-1.1-.33-4.848-.86-4.848-.86-.288 0-.336.19-.384.58-.528 3.55-1.056 7.48-1.392 10.94l-.672.14c-4.417.87-5.905 2.69-5.905 5.19 0 2.06 1.008 4.56 2.208 7.34-1.776 2.31-3.456 4.37-4.8 6.15a.87.87 0 00-.24.48.51.51 0 00.336.38 14.231 14.231 0 003.744 1.35.608.608 0 00.528-.29l2.016-4.32a31.987 31.987 0 011.873 6.24v.05c0 .52 0 .67 2.112.67a20.388 20.388 0 002.064-.1.432.432 0 00.432-.48v-.19zm-4.176-16.27a41.048 41.048 0 01-2.449 4.51 13.7 13.7 0 01-.816-3.94c0-1.87.912-3.02 3.409-3.12 0 .43-.048.91-.048 1.3zm-.24 10.32c-.288-.82-.624-1.63-.96-2.4.336-.63.72-1.25 1.1-1.87zm55.489 1.77a4.685 4.685 0 00.576-2.2c0-3.46-3.552-4.61-5.9-4.61-3.5 0-5.857 2.49-5.857 5.09 0 3.79 4.512 5.56 9.313 5.56 9.313 0 15.457-6.04 15.457-11.76 0-5.04-4.9-8.49-10.849-8.49a18 18 0 00-4.848.67 1.219 1.219 0 01-.336.05c-.1 0-.1 0-.1-.05a.221.221 0 01.1-.19c2.688-2.74 5.664-5.52 9.265-9.17.384-.39 1.488-.96 1.488-1.63 0-.96-4.609-3.12-5.329-3.12a.525.525 0 00-.384.14c-1.68 1.49-8.737 2.64-9.6 2.64-1.344 0-2.064-.48-3.456-1.25a.815.815 0 00-.384-.14c-.192 0-.24.24-.288.57a27.115 27.115 0 00.864 3.99c.288 1.05 2.016 1.2 2.688 1.2 1.536 0 3.5-.82 8.689-2.55a1 1 0 01.288-.04c.1 0 .1 0 .1.04a.708.708 0 01-.144.29c-2.832 3.31-8.4 9.94-11.377 11.67-.144.09-7.969 5.37-7.969 6.33 0 .82 3.169 2.21 4.033 2.21.384 0 .576-.09 2.352-1.87 2.112-2.11 6.337-6.24 13.1-6.24 4.464 0 7.057 2.06 7.057 5.04-.004 2.69-2.114 6.67-8.549 7.82zm-4.7.05c-.528-.14-2.545-.67-2.545-2.11 0-.77.672-1.39 1.873-1.39 1.008 0 2.256.38 2.256 1.53a2.143 2.143 0 01-1.588 1.97z" fill="#1a1a1a" fill-rule="evenodd"/></svg>