<svg version="1.1" id="レイヤー_1" xmlns="http://www.w3.org/2000/svg" x="0" y="0" viewBox="0 0 87 97" xml:space="preserve"><style>.st0{fill:#1a1a1a}</style><path class="st0" d="M32.42 72.05c-.29 0-.59-.11-.81-.34-.45-.45-.45-1.18 0-1.64l10.87-10.93a1.153 1.153 0 011.63 1.63L33.23 71.72c-.23.22-.52.33-.81.33z"/><path class="st0" d="M54 71.9c-.29 0-.59-.11-.81-.34L42.47 60.79a1.15 1.15 0 01-.34-.82V47.9c0-.64.51-1.16 1.15-1.16.63 0 1.15.52 1.15 1.16v11.58l10.38 10.44c.45.45.45 1.18 0 1.63-.23.24-.52.35-.81.35zm-3.6-30.49c-.64 0-1.15-.52-1.15-1.16V28.39c0-.64.51-1.16 1.15-1.16s1.15.52 1.15 1.16v11.86c0 .64-.51 1.16-1.15 1.16z"/><path class="st0" d="M50.4 41.41H35.96c-.63 0-1.15-.52-1.15-1.16V28.39c0-.64.51-1.16 1.15-1.16s1.15.52 1.15 1.16v10.7H50.4c.64 0 1.15.52 1.15 1.16s-.51 1.16-1.15 1.16z"/><path d="M43.28 15.8c-4.33 0-7.85-3.54-7.85-7.9S38.95 0 43.28 0s7.85 3.54 7.85 7.9-3.52 7.9-7.85 7.9zm0-13.49c-3.06 0-5.55 2.51-5.55 5.59s2.49 5.59 5.55 5.59c3.06 0 5.55-2.51 5.55-5.59s-2.49-5.59-5.55-5.59z"/><path class="st0" d="M30.52 41.41c-.63 0-1.15-.52-1.15-1.16V23.21c0-3.06 2.47-5.54 5.51-5.54h16.8c3.04 0 5.51 2.49 5.51 5.54V38.6c0 .64-.51 1.16-1.15 1.16s-1.15-.52-1.15-1.16V23.21c0-1.78-1.44-3.23-3.21-3.23h-16.8c-1.77 0-3.21 1.45-3.21 3.23v17.04c0 .64-.51 1.16-1.15 1.16z"/><path d="M21.03 97c-.63 0-1.15-.52-1.15-1.16V83.98c0-.64.51-1.16 1.15-1.16.63 0 1.15.52 1.15 1.16v11.86c0 .64-.52 1.16-1.15 1.16z"/><path d="M21.03 97H6.59c-.63 0-1.15-.52-1.15-1.16V83.98c0-.64.51-1.16 1.15-1.16s1.15.52 1.15 1.16v10.7h13.29c.63 0 1.15.52 1.15 1.16 0 .64-.52 1.16-1.15 1.16z"/><path class="st0" d="M13.91 71.39c-4.33 0-7.85-3.54-7.85-7.9s3.52-7.9 7.85-7.9 7.85 3.54 7.85 7.9-3.52 7.9-7.85 7.9zm0-13.48c-3.06 0-5.55 2.51-5.55 5.59s2.49 5.59 5.55 5.59c3.06 0 5.55-2.51 5.55-5.59s-2.49-5.59-5.55-5.59z"/><path d="M1.15 97C.51 97 0 96.48 0 95.84V78.81c0-3.06 2.47-5.54 5.51-5.54h16.8c3.04 0 5.51 2.49 5.51 5.54V94.2c0 .64-.51 1.16-1.15 1.16s-1.15-.52-1.15-1.16V78.81c0-1.78-1.44-3.23-3.21-3.23H5.51c-1.77 0-3.21 1.45-3.21 3.23v17.04c0 .63-.52 1.15-1.15 1.15zm79.06 0c-.64 0-1.15-.52-1.15-1.16V83.98c0-.64.51-1.16 1.15-1.16s1.15.52 1.15 1.16v11.86c0 .64-.51 1.16-1.15 1.16z"/><path d="M80.21 97H65.78c-.64 0-1.15-.52-1.15-1.16V83.98c0-.64.51-1.16 1.15-1.16s1.15.52 1.15 1.16v10.7h13.29c.64 0 1.15.52 1.15 1.16-.01.64-.52 1.16-1.16 1.16z"/><path class="st0" d="M73.09 71.39c-4.33 0-7.85-3.54-7.85-7.9s3.52-7.9 7.85-7.9 7.85 3.54 7.85 7.9-3.52 7.9-7.85 7.9zm0-13.48c-3.06 0-5.55 2.51-5.55 5.59s2.49 5.59 5.55 5.59 5.55-2.51 5.55-5.59-2.49-5.59-5.55-5.59z"/><path d="M60.33 97c-.64 0-1.15-.52-1.15-1.16V78.81c0-3.06 2.47-5.54 5.51-5.54h16.8c3.04 0 5.51 2.49 5.51 5.54V94.2c0 .64-.51 1.16-1.15 1.16s-1.15-.52-1.15-1.16V78.81c0-1.78-1.44-3.23-3.21-3.23h-16.8c-1.77 0-3.21 1.45-3.21 3.23v17.04c0 .63-.51 1.15-1.15 1.15z"/><path d="M14.74 88.12l3.08-2.84-1.74-7.31H13.4l-1.85 7.42 3.19 2.73zm28.54-55.83l3.08-2.84-1.85-7.42-1.23.11h-1.34l-1.85 7.42 3.19 2.73zM73.09 87.9l3.92-2.84-1.85-7.42-2.07.11h-1.34l-1.85 7.42 3.19 2.73z" fill="#ff9f00"/></svg>