<svg xmlns="http://www.w3.org/2000/svg" width="226.219" height="159.66" viewBox="0 0 226.219 159.66"><path data-name="top/service-company-txt.svg" d="M40.604 35.05C32.885 30.82 24.23 25.71 24.23 7.17c0-.6 0-3.68.089-3.87s.8-.78.892-.92a1.1 1.1 0 00.357-.73c0-.69-1.517-.69-2.008-.69l-5-.19c.045 1.94.179 7.87.179 9.11 0 4.93-.536 12.29-6.693 18.91-2.811 2.99-5.175 4.46-9.548 6.63l4.328 4.46c8.7-5.84 11.556-9.02 14.813-16.93 3.658 8.19 6.648 11.45 14.991 16.7zm42.616-7.32v-3.59h-2.5v-5.33H66.894v-1.75h10.931V8.59H66.894V6.98h16.151V3.03H66.894v-.88a.483.483 0 01.268-.41.761.761 0 00.49-.64.543.543 0 00-.535-.42l-5.265-.69v3.04h-16.2v3.95h16.2v1.61H50.873v8.47h10.976v1.75H48.241v3.59h13.608v1.74h-16.2v3.59h16.2v1.98H48.241v3.59h13.608v1.38a1.13 1.13 0 01-1.383 1.06c-.759 0-2.008-.14-3.168-.23l2.231 5.01c6.246-.04 7.362-1.24 7.362-3.91V33.3h9.146v1.24h4.685v-6.81h2.5zm-9.994-13.8h-6.332v-2.21h6.335v2.21zm-11.377 0h-6.425v-2.21h6.425v2.21zm14.188 10.21h-9.143V22.4h9.146v1.74zm0 5.57h-9.143v-1.98h9.146v1.98zm50.884-9.43c0-10.26-7.317-16.75-16.6-16.75a19.538 19.538 0 00-19.676 19.51c0 8.23 7.317 12.38 8.923 12.38 2.32 0 4.373-3.87 5.711-6.72 1.473-3.08 4.105-9.52 5.533-20.47a11.17 11.17 0 017.585 3.08 11.029 11.029 0 013.212 8.05 14.677 14.677 0 01-3.212 9.15 14.955 14.955 0 01-8.031 4.93l3.3 4.74a21.622 21.622 0 0010.4-8.1 17.565 17.565 0 002.855-9.8zM105.505 9.05c-.892 7.18-4.729 19.19-7.049 19.19-.8 0-2.856-1.93-2.856-5.66a15.281 15.281 0 014.462-10.21 13.031 13.031 0 015.443-3.32zm63.6-.78H152.82a34.947 34.947 0 01.268-5.06c.089-.18.758-.87.892-1.06a.451.451 0 00.134-.36c0-.51-.669-.6-1.874-.69l-4.908-.42c.089 1.57.134 3.54.089 7.59h-12.938v5.29h12.805c-.714 6.44-2.231 16.89-14.9 22.36l4.729 4.46c11.422-6.3 14.9-17.71 15.348-26.82h11.2a119.706 119.706 0 01-1.071 15.64c-.4 3.13-.892 4.79-4.372 4.79a28.3 28.3 0 01-3.57-.32l2.276 5.75c8.432-.51 10.262-2.44 11.243-11.27a173.162 173.162 0 00.934-19.88zm42.96 7.41a21.127 21.127 0 00-3.7-3.5l-1.874 2.21a21.121 21.121 0 013.7 3.5zm-3.614 4.19a19.611 19.611 0 00-3.7-3.55l-1.829 2.21a20.118 20.118 0 013.658 3.54zm1.473-12.01V2.52c-8.433 2.67-22.264 3.77-31.9 3.68l.758 5.15c4.462-.64 11.021-1.19 17-1.7a33.995 33.995 0 00-5.889 7 17.066 17.066 0 00-3.034 9.15 11.719 11.719 0 003.3 8.28c3.614 3.73 8.611 4.69 10.976 5.11l1.74-5.61a13.775 13.775 0 01-7.852-2.35 7.349 7.349 0 01-3.213-5.98c0-3.5 2.142-7.64 5.444-11.04 5.665-5.89 10.573-6.21 12.67-6.35zm3.045 22.45a37.559 37.559 0 018.611 10.21l4.641-3.82a26.6 26.6 0 00-9.905-9.98zM41.942 72.67a33.467 33.467 0 01-17.757-11.41.5.5 0 00.089-.28.831.831 0 00-.8-.73l-5.845-.83A32.554 32.554 0 01.541 73.5l4.239 4.6c6.157-3.31 11.912-7.55 15.928-13.43a40.7 40.7 0 0017.311 12.37zm-3.7 26.82v-5.11H24.007v-8.64h9.592v-5.25h-9.592v-7.82a1.014 1.014 0 01.49-.64.921.921 0 00.536-.6c0-.42-.491-.55-1.116-.6l-5-.51v24.06h-4.551V81.37a.808.808 0 01.446-.65.625.625 0 00.313-.55.717.717 0 00-.848-.55l-4.819-.51v15.27H3.48v5.11h34.756zm46.347-11.5V83.8H68.212v-1.97h11.645V78.1H68.212v-1.98H82.4v-3.96h-8.206c.58-.92 1.026-1.65 1.606-2.76h8.745v-3.81h-6.514c.268-.37 1.517-2.3 1.606-2.4a3.947 3.947 0 01.893-.41.571.571 0 00.267-.41.429.429 0 00-.312-.37l-4.462-2.3a32.213 32.213 0 01-2.543 5.1l1.473.79h-2.811v-3.82a.714.714 0 01.357-.51.592.592 0 00.357-.46.478.478 0 00-.491-.41l-4.819-.65v5.85h-3.123V62a1 1 0 01.446-.74.9.9 0 00.357-.6.473.473 0 00-.4-.41l-4.953-.69v6.03h-3.525l1.874-1.2a27.317 27.317 0 00-3.792-4.88l-3.7 2.39a29.277 29.277 0 012.9 3.69h-6.559v3.81h8.745c.446.65.58.88 1.695 2.76h-8.343v3.96h14.226v1.98H51.971v3.73h11.423v1.97h-16.33v4.19h12.805a38.677 38.677 0 01-12.805 7.82l4.06 3.73a47.455 47.455 0 0012.27-8.65v8.19h4.819v-8.7c2.052 2.21 5.22 5.52 12.76 8.7l3.391-4.01a25.676 25.676 0 01-12.314-7.08h12.537zm-14.1-18.59a21.856 21.856 0 01-1.339 2.76h-6.647c-.759-1.47-.8-1.61-1.384-2.76h9.37zm53.53.14v-5.33a30.576 30.576 0 01-10.574 1.88 38.84 38.84 0 01-5.711-.5v5.06c2.364.23 4.417.23 4.774.23a57.652 57.652 0 0011.509-1.34zm2.141 24.15v-5.7a35.335 35.335 0 01-10.172 1.43c-4.506 0-4.953-1.25-5-5.62l-4.863.69c.133 7.78 1.829 10.03 9.949 10.03a58.934 58.934 0 0010.084-.83zm-23.334-8.18l-2.632-1.48c-.982 1.8-1.25 2.26-1.785 3.22a26.006 26.006 0 01-.625-6.3c0-6.95 1.919-15.27 2.588-15.69.089-.04.669-.27.758-.32a.55.55 0 00.224-.41c0-.37-.848-.69-1.16-.83L95.643 62a92.748 92.748 0 00-1.874 10.49 83.44 83.44 0 00-.67 9.06 41.239 41.239 0 001.83 12.1 14.165 14.165 0 001.651 3.63l3.524-1.42a41.732 41.732 0 012.72-10.35zm-63.38 71.66v-32.48h-15.3v32.67h4.462v-2.49h6.38v2.3h4.462zM21.51 126.62h-8.7v-4.83a1.034 1.034 0 01.535-1.01.974.974 0 00.491-.78c0-.51-.58-.6-1.026-.6l-4.819-.18c.179 3.26.223 5.1.223 7.4h-5.62v4.51h5.578C7.19 141.25 5.361 148.2.007 155.15l5.443 1.84c6.291-8.79 7-20.8 7.317-25.86h4.1a121.042 121.042 0 01-1.16 17.53c-.625 4.19-1.339 4.83-3.3 4.83a11.928 11.928 0 01-2.32-.23l1.785 5.02c5.621-.23 7.272-1.52 8.254-8.42a167.956 167.956 0 001.382-23.24zm13.474 23.47h-6.38v-20.61h6.38v20.61zm51.46-2.44a28.443 28.443 0 01-9.236-6.21h5.22v-12.42h-8.834v-2.26h12v-4.14h-12v-1.47a1.344 1.344 0 01.58-.74.914.914 0 00.447-.64c0-.32-.179-.55-1.339-.64l-4.283-.42v3.91H58.294v4.14h10.7v2.26h-8.3v12.42h5.309a25.76 25.76 0 01-7.986 6.9l4.016 3.54a35.714 35.714 0 006.96-6.76v7.73h4.601v-8.33a33.362 33.362 0 009.013 7.13zm-8.7-10.31h-4.15v-4.23h4.15v4.23zm-8.745 0H65.43v-4.23h3.564v4.23zm-10.753-11.18a35.214 35.214 0 00-6.648-5.98l-3.524 3.78a37.737 37.737 0 016.2 5.93zM87.47 152.3a94.225 94.225 0 01-12.582 1.38c-4.372.27-7.451.27-8.075.27-8.076 0-9.236-2.07-9.236-5.15v-13.2H47.536v5.06h5.131v9.2a88.448 88.448 0 01-6.469 3.59l1.874 5.19a1.438 1.438 0 00.937 1.02c.223 0 .267-.1.713-1.11a1.613 1.613 0 01.625-.78c1.74-1.47 4.506-3.68 4.506-3.68 1.607 2.48 3.436 4.32 11.378 4.32h18.917zm42.18-25.63h-16.287a34.957 34.957 0 01.267-5.06c.09-.18.759-.87.893-1.06a.472.472 0 00.133-.37c0-.5-.669-.59-1.873-.69l-4.908-.41c.089 1.56.134 3.54.089 7.59H95.025v5.29h12.805c-.714 6.44-2.231 16.89-14.9 22.36l4.73 4.46c11.421-6.3 14.9-17.71 15.348-26.82h11.2a119.658 119.658 0 01-1.07 15.64c-.4 3.13-.893 4.79-4.373 4.79a30.266 30.266 0 01-3.569-.32l2.275 5.75c8.433-.51 10.262-2.44 11.244-11.27a173.618 173.618 0 00.933-19.88zm40.327 11.69l-1.517-5.25c-2.1.97-2.677 1.24-7.9 3.77-1.026-3.03-2.989-4.64-6.068-4.64a8.526 8.526 0 00-3.837.96c.759-1.19 1.116-1.84 2.544-4.55a90.953 90.953 0 0010.663-1.75l.312-5.15a36.7 36.7 0 01-8.745 2.34c.223-.5 1.339-3.08 1.383-3.12.045 0 .937-.42 1.027-.46a.538.538 0 00.446-.51c0-.32-.759-.41-.893-.46l-5.577-1.01a36.7 36.7 0 01-2.23 6.12 62 62 0 01-8.522-.19l.535 4.79c1.874 0 3.257-.05 5.8-.19a60.981 60.981 0 01-8.789 12.65l4.372 2.81c2.454-4.14 5.131-8.33 9.5-8.33 2.587 0 3.123 1.66 3.391 3.04-6.693 3.54-10.8 5.7-10.8 11.41a6.417 6.417 0 001.7 4.51c2.811 3.08 7.986 3.08 10.485 3.08a71.64 71.64 0 0010.618-.69v-5.2a49.772 49.772 0 01-11.377 1.47c-3.257 0-6.692-.59-6.692-3.58 0-3.23 4.64-5.62 6.335-6.49-.044 2.02-.089 4.28-.223 6.9h5.176c0-1.56-.09-7.27-.09-9.06 3.305-1.29 5.447-2.07 8.971-3.22zm14.058 6.34a7.114 7.114 0 106.871 7.09 6.993 6.993 0 00-6.873-7.09zm0 2.21a4.881 4.881 0 11-4.774 4.88 4.812 4.812 0 014.772-4.88z" fill-rule="evenodd"/></svg>